<svg t="1717253594308" class="icon" viewBox="0 0 1024 1024" version="1.1" xmlns="http://www.w3.org/2000/svg" p-id="1530" width="200" height="200"><path d="M646.19249981 176.51875048H210.06687543c-18.55630661 0-33.54812495-14.99181834-33.54812495-33.54812496s14.99181834-33.54812495 33.54812495-33.54812496h436.12562438c18.55630661 0 33.54812495 14.99181834 33.54812495 33.54812496s-14.99181834 33.54812495-33.54812495 33.54812496zM981.67374933 545.54812495H210.06687543c-18.55630661 0-33.54812495-14.99181834-33.54812495-33.54812495s14.99181834-33.54812495 33.54812495-33.54812495h771.6068739c18.55630661 0 33.54812495 14.99181834 33.54812496 33.54812495s-14.99181834 33.54812495-33.54812496 33.54812495zM646.19249981 914.57749944H210.06687543c-18.55630661 0-33.54812495-14.99181834-33.54812495-33.54812496s14.99181834-33.54812495 33.54812495-33.54812496h436.12562438c18.55630661 0 33.54812495 14.99181834 33.54812495 33.54812496s-14.99181834 33.54812495-33.54812495 33.54812496zM75.87437562 176.51875048H42.32625067c-18.55630661 0-33.54812495-14.99181834-33.54812496-33.54812496s14.99181834-33.54812495 33.54812496-33.54812496h33.54812495c18.55630661 0 33.54812495 14.99181834 33.54812494 33.54812496s-14.99181834 33.54812495-33.54812494 33.54812496zM75.87437562 545.54812495H42.32625067c-18.55630661 0-33.54812495-14.99181834-33.54812496-33.54812495s14.99181834-33.54812495 33.54812496-33.54812495h33.54812495c18.55630661 0 33.54812495 14.99181834 33.54812494 33.54812495s-14.99181834 33.54812495-33.54812494 33.54812495zM75.87437562 914.57749944H42.32625067c-18.55630661 0-33.54812495-14.99181834-33.54812496-33.54812496s14.99181834-33.54812495 33.54812496-33.54812496h33.54812495c18.55630661 0 33.54812495 14.99181834 33.54812494 33.54812496s-14.99181834 33.54812495-33.54812494 33.54812496z" p-id="1531" fill="#ffffff"></path></svg>